<?xml version="1.0" encoding="UTF-8"?>
<svg id="Layer_1" data-name="Layer 1" xmlns="http://www.w3.org/2000/svg" version="1.1" viewBox="0 0 1920 1080">
  <defs>
    <style>
      .cls-1 {
        fill: #eafe1b;
        stroke-width: 0px;
      }
    </style>
  </defs>
  <path class="cls-1" d="M796,390.5l3.4,12.8c17.1,65.3,68.2,116.4,133.5,133.5l12.8,3.4-12.8,3.4c-65.3,17.1-116.4,68.2-133.5,133.5l-3.4,12.8-3.4-12.8c-17.1-65.3-68.2-116.4-133.5-133.5l-12.8-3.4,12.8-3.4c65.3-17.1,116.4-68.2,133.5-133.5l3.4-12.8Z"/>
  <g>
    <g>
      <path class="cls-1" d="M1220.5,567.2c0-18,0-36.1,0-54.1,0,0-.1.1,0,.1,17.7,0,35.5,0,53.4,0v53.9c-17.7,0-35.6,0-53.4,0,0,0,.1.1.1.1Z"/>
      <path class="cls-1" d="M1166.7,620.8v-32.4c8.3-8.3,12.9-12.9,21.2-21.2h32.6s-.1,0-.1,0c0,17.5,0,35,0,52.9s-.3.7-.7.7h-53.1s.1.1.1.1Z"/>
      <path class="cls-1" d="M1166.6,620.7v53.5h-53.4v-53.4c17.9,0,35.7,0,53.5,0,0,0-.1-.1-.1-.1Z"/>
    </g>
    <g>
      <path class="cls-1" d="M1113.3,620.1c0,18,0,36.1,0,54.1,0,0-.1-.1,0-.1,17.7,0,35.5,0,53.4,0v-53.9c-17.7,0-35.6,0-53.4,0,0,0,.1-.1.1-.1Z"/>
      <path class="cls-1" d="M1059.5,566.5v52.9c0,.4.3.7.7.7,17.8,0,35.4,0,53.1,0,0,0-.1.1-.1,0v-32.4c-8.3-8.3-12.9-12.9-21.2-21.2h-32.6s.1-.1.1-.1Z"/>
      <path class="cls-1" d="M1059.4,566.6v-53.5h-53.4v53.4c17.9,0,35.7,0,53.5,0,0,0-.1.1-.1.1Z"/>
    </g>
  </g>
  <g>
    <g>
      <path class="cls-1" d="M1220.5,513.1c0,18,0,36.1,0,54.1,0,0-.1-.1,0-.1,17.7,0,35.5,0,53.4,0v-53.9c-17.7,0-35.6,0-53.4,0,0,0,.1-.1.1-.1Z"/>
      <path class="cls-1" d="M1166.7,459.5v32.4c8.3,8.3,12.9,12.9,21.2,21.2h32.6s-.1,0-.1,0c0-17.5,0-35,0-52.9s-.3-.7-.7-.7h-53.1s.1-.1.1-.1Z"/>
      <path class="cls-1" d="M1166.6,459.6v-53.5h-53.4v53.4c17.9,0,35.7,0,53.5,0,0,0-.1.1-.1.1Z"/>
    </g>
    <g>
      <path class="cls-1" d="M1113.3,460.2c0-18,0-36.1,0-54.1,0,0-.1.1,0,.1,17.7,0,35.5,0,53.4,0v53.9c-17.7,0-35.6,0-53.4,0,0,0,.1.1.1.1Z"/>
      <path class="cls-1" d="M1059.5,513.8v-52.9c0-.4.3-.7.7-.7,17.8,0,35.4,0,53.1,0,0,0-.1-.1-.1,0v32.4c-8.3,8.3-12.9,12.9-21.2,21.2h-32.6s.1.1.1.1Z"/>
      <path class="cls-1" d="M1059.4,513.7v53.5h-53.4v-53.4c17.9,0,35.7,0,53.5,0,0,0-.1-.1-.1-.1Z"/>
    </g>
  </g>
  <g>
    <g>
      <path class="cls-1" d="M1188,556.3c0-10.8,0-21.5,0-32.3,0,0,0,0,0,0,10.6,0,21.2,0,31.9,0v32.1c-10.6,0-21.2,0-31.8,0,0,0,0,0,0,0Z"/>
      <path class="cls-1" d="M1155.9,588.3v-.3l31.6-31.6c.2,0,.3,0,.5,0,0,0,0,0,0,0,0,10.6,0,21.2,0,32h-32.1,0Z"/>
      <path class="cls-1" d="M1155.8,588.2v31.9h-31.9v-31.9c10.6,0,21.3,0,31.9,0,0,0,0,0,0,0Z"/>
    </g>
    <g>
      <path class="cls-1" d="M1124,587.9c0,10.8,0,21.5,0,32.3,0,0,0,0,0,0,10.6,0,21.2,0,31.9,0v-32.1c-10.6,0-21.2,0-31.8,0,0,0,0,0,0,0Z"/>
      <path class="cls-1" d="M1091.9,555.9v32c10.7,0,21.4,0,32.1,0,0,0,0,0,0,0,0-.1,0-.2,0-.3-12.4-12.4-19.3-19.3-31.6-31.6h-.5,0Z"/>
      <path class="cls-1" d="M1091.9,556v-31.9h-31.9v31.9c10.6,0,21.3,0,31.9,0,0,0,0,0,0,0Z"/>
    </g>
  </g>
  <g>
    <g>
      <path class="cls-1" d="M1188,524c0,10.8,0,21.5,0,32.3,0,0,0,0,0,0,10.6,0,21.2,0,31.9,0v-32.1c-10.6,0-21.2,0-31.8,0,0,0,0,0,0,0Z"/>
      <path class="cls-1" d="M1155.9,492.1v.3c12.4,12.4,19.3,19.3,31.6,31.6.2,0,.3,0,.5,0,0,0,0,0,0,0,0-10.6,0-21.2,0-32h-32.1,0Z"/>
      <path class="cls-1" d="M1155.8,492.1v-31.9h-31.9v31.9c10.6,0,21.3,0,31.9,0,0,0,0,0,0,0Z"/>
    </g>
    <g>
      <path class="cls-1" d="M1124,492.5c0-10.8,0-21.5,0-32.3,0,0,0,0,0,0,10.6,0,21.2,0,31.9,0v32.1c-10.6,0-21.2,0-31.8,0,0,0,0,0,0,0Z"/>
      <path class="cls-1" d="M1091.9,524.5v-32c10.7,0,21.4,0,32.1,0,0,0,0,0,0,0,0,.1,0,.2,0,.3-12.4,12.4-19.3,19.3-31.6,31.6h-.5,0Z"/>
      <path class="cls-1" d="M1091.9,524.4v31.9h-31.9v-31.9c10.6,0,21.3,0,31.9,0,0,0,0,0,0,0Z"/>
    </g>
  </g>
  <path class="cls-1" d="M1140.9,501.5h0c13.5,13.5,24.3,24.3,37.9,37.9h0v1.9s0,0,0,0c-13.5,13.5-24.3,24.3-37.9,37.9h0c-1,0-.9,0-1.9,0h0c-13.5-13.5-24.3-24.3-37.9-37.9h0v-1.9s0,0,0,0c13.5-13.5,24.3-24.3,37.9-37.9h0c1,0,.9,0,1.9,0Z"/>
</svg>