<?xml version="1.0" encoding="utf-8"?>
<!-- Generator: Adobe Illustrator 28.5.0, SVG Export Plug-In . SVG Version: 9.03 Build 54727)  -->
<svg version="1.1" id="Layer_1" xmlns="http://www.w3.org/2000/svg" xmlns:xlink="http://www.w3.org/1999/xlink" x="0px" y="0px"
	 viewBox="0 0 782.3 302.1" style="enable-background:new 0 0 782.3 302.1;" xml:space="preserve">
<style type="text/css">
	.st0{enable-background:new    ;}
	.st1{fill:#FFFFFF;}
	.st2{fill:#EAFE1B;}
	.st3{fill:#00D9B3;}
	.st4{fill:none;stroke:#EAFE1B;stroke-width:21.7;stroke-linejoin:bevel;}
</style>
<g class="st0">
	<path class="st1" d="M71.6,127.7l-12.8-26.8h-0.6v90H30.8V57.3h31.8l36.6,63.2l12.8,26.8h0.6v-90H140v133.7h-31.8L71.6,127.7z"/>
	<path class="st1" d="M161.6,140.6c0-31.8,16.9-52.5,47.1-52.5c33.3,0,46.7,24.1,46.7,51.3v8.4h-64.5v1.5c0,13.2,7.1,21.6,22.2,21.6
		c11.9,0,18.4-5.6,24.7-12.1l14.2,17.6c-9,10.3-23.7,16.7-42.1,16.7C179.1,193.2,161.6,172.7,161.6,140.6z M190.9,129.6v1.5h35.2
		v-1.7c0-12.3-5.6-20.5-16.9-20.5C198,109,190.9,117.2,190.9,129.6z"/>
	<path class="st1" d="M262.7,190.9l33.1-51.1l-32.7-49.4h32.2l18.8,31.6h0.8L333,90.4h29.9l-33.3,50.4l33.5,50.2h-32.2l-19.3-32.7
		h-0.8l-18.6,32.7H262.7z"/>
	<path class="st1" d="M415,190.9c-19.5,0-29.9-10.1-29.9-29.3v-49.2h-14.2v-22h7.1c7.7,0,10-3.8,10-10.7V63.2h25.5v27.2h19.9v22
		h-19.9v56.5h18.4v22H415z"/>
	<path class="st1" d="M491.8,231.5c-34.9,0-47.7-8.8-47.7-23.4c0-11.1,7.1-17.6,18.8-19.1v-2.1c-9.6-1.7-14.6-9-14.6-17.6
		c0-10.5,9.4-15.9,18.8-17.8v-0.8c-12.1-5.6-18-15.7-18-28.7c0-20.3,14.2-33.9,43.1-33.9c6.3,0,12.1,0.6,17,1.9v-3.8
		c0-10.5,5.6-15.1,15.1-15.1h15.9v21.1H518v1.1c11.7,5.6,17.2,15.9,17.2,28.7c0,20.1-14,33.3-43.1,33.3c-6.7,0-12.6-0.8-17.8-2.1
		c-2.7,1.7-4.4,4.6-4.4,8c0,4.8,3.4,7.7,12.1,7.7h29.1c24.5,0,35,10.7,35,29.3C546.2,219.5,532.8,231.5,491.8,231.5z M504,193h-34.5
		c-2.5,2.5-3.6,5.9-3.6,9c0,7.3,5.7,10.7,21.1,10.7h11.5c15.3,0,21.1-3.4,21.1-10.7C519.5,196.3,515.3,193,504,193z M508.8,122.9
		v-2.3c0-8.8-5.6-13.8-16.7-13.8c-11.1,0-16.7,5-16.7,13.8v2.3c0,8.8,5.6,13.8,16.7,13.8C503.3,136.7,508.8,131.7,508.8,122.9z"/>
	<path class="st1" d="M551.3,140.6c0-31.8,16.9-52.5,47.1-52.5c33.3,0,46.7,24.1,46.7,51.3v8.4h-64.5v1.5c0,13.2,7.1,21.6,22.2,21.6
		c11.9,0,18.4-5.6,24.7-12.1l14.2,17.6c-9,10.3-23.7,16.7-42.1,16.7C568.8,193.2,551.3,172.7,551.3,140.6z M580.6,129.6v1.5h35.2
		v-1.7c0-12.3-5.6-20.5-16.9-20.5C587.7,109,580.6,117.2,580.6,129.6z"/>
	<path class="st1" d="M665.3,190.9V90.4h28.3v17h1.1c3.6-10.5,12.1-19.3,28-19.3c20.5,0,31.4,14.6,31.4,39.8v63h-28.3v-60.7
		c0-12.8-3.6-19.1-14-19.1c-9.2,0-18.2,4.8-18.2,14.7v65.1H665.3z"/>
</g>
<rect x="534.5" y="71" class="st2" width="8.2" height="21.1"/>
<rect x="542.8" y="71" class="st3" width="8.2" height="21.1"/>
<line class="st4" x1="30.8" y1="217.9" x2="325.8" y2="217.9"/>
<g>
	<path class="st2" d="M347.5,228.9c0-7.3,0-14.6,0-21.8l0,0c7.2,0,14.3,0,21.6,0v21.8C361.9,228.9,354.7,228.9,347.5,228.9
		L347.5,228.9z"/>
	<path class="st2" d="M325.8,250.5v-21.6c7.3,0,14.5,0,21.7,0l0,0c0,7.2,0,14.3,0,21.6H325.8L325.8,250.5z"/>
	<path class="st2" d="M325.8,250.5v21.6h-21.6v-21.6C311.4,250.5,318.6,250.5,325.8,250.5L325.8,250.5z"/>
</g>
</svg>